<svg xmlns="http://www.w3.org/2000/svg" width="86.986" height="86.644" viewBox="0 0 86.986 86.644">
  <path id="Advertising" d="M189.885,204.782a16.378,16.378,0,0,1-4.19-2.4,17.8,17.8,0,0,1-5.382-6.7,19.162,19.162,0,0,1-1.594-5.98,18.446,18.446,0,0,1,1.17-8.471,15.421,15.421,0,0,1,2.819-4.75,17.223,17.223,0,0,1,6.03-4.794,16.2,16.2,0,0,1,5.716-1.694c.844-.051,1.684-.184,2.527-.191,2.942-.024,5.885-.02,8.827-.007a50.85,50.85,0,0,0,9.842-1.086,100.026,100.026,0,0,0,17.685-5.511A115.749,115.749,0,0,0,244,158.444c2.811-1.446,5.634-2.867,8.441-4.32a2.116,2.116,0,0,1,3.273,1.962c.015,5.111.005,10.221.005,15.332v1.321c.275.1.516.209.766.285,4.754,1.444,7.886,4.453,8.751,9.438a16.786,16.786,0,0,1-.463,8.792,11.452,11.452,0,0,1-8,7.388c-.328.094-.652.2-1.048.324v1.146q0,9.757-.006,19.513a3.73,3.73,0,0,1-.141,1.249,2.1,2.1,0,0,1-3,1.038c-.97-.471-1.885-1.055-2.849-1.541-3.375-1.7-6.739-3.421-10.149-5.047-2.222-1.06-4.489-2.037-6.784-2.93a104.888,104.888,0,0,0-13.464-4.4c-1.156-.278-2.324-.509-3.488-.752a3.292,3.292,0,0,0-.557,0,21.933,21.933,0,0,0,.04,3.238c.087,1.07.268,2.132.4,3.2a48.622,48.622,0,0,0,1.371,6.993,50.22,50.22,0,0,0,2.164,6.077,8.831,8.831,0,0,0,.575,1,6.986,6.986,0,0,1,1.237,4.023,5.524,5.524,0,0,1-3.285,5.182,24.238,24.238,0,0,1-6.5,2.669c-1.158.261-2.339.419-3.511.622-.227.039-.457.061-.683.1a5.292,5.292,0,0,1-6.026-3.163c-.486-1.3-.912-2.614-1.361-3.924q-1.87-5.453-3.736-10.907-1.985-5.78-3.981-11.556C191.3,208.8,190.593,206.8,189.885,204.782Zm61.561-45.118c-3.076,1.478-6.063,2.919-9.055,4.348-1.078.515-2.149,1.051-3.257,1.493-4.747,1.9-9.469,3.841-14.383,5.306a69.994,69.994,0,0,1-14.164,2.983c-.717.06-1.426.2-2.114.3-.181.923-.225,26.184-.061,27.65a.611.611,0,0,0,.2.1c.957.095,1.92.146,2.872.279,1.251.176,2.49.437,3.741.622a58.921,58.921,0,0,1,9.411,2.184c4.169,1.34,8.31,2.76,12.354,4.472,4.372,1.851,8.642,3.9,12.87,6.045.507.258.995.552,1.592.886Zm-47.39,14.352h-.876c-2.13,0-4.26-.024-6.388.012a12.382,12.382,0,0,0-2.521.265,13.907,13.907,0,0,0-8.925,5.929,13.717,13.717,0,0,0-2.18,9.79,13.572,13.572,0,0,0,5.5,9.179,13.183,13.183,0,0,0,7.98,2.656c2.168.014,4.336.007,6.5,0,.3,0,.591-.046.9-.072Zm6.768,32.487a2.759,2.759,0,0,0-.6-.18c-1.965-.085-3.929-.2-5.9-.223-2.824-.039-5.649-.017-8.474-.016-.261,0-.523.035-.909.063l10.341,29.882c.4,0,.778.027,1.152,0a22.258,22.258,0,0,0,6.919-1.638,21.89,21.89,0,0,0,2.64-1.411,1.6,1.6,0,0,0,.67-2.192,2.985,2.985,0,0,0-.363-.72,13.512,13.512,0,0,1-1.966-4.03,52.4,52.4,0,0,1-2.86-11.945c-.176-1.684-.418-3.357-.453-5.054C211.01,208.193,210.9,207.356,210.823,206.5Zm44.955-29.247v17.129a1.368,1.368,0,0,0,.405-.005,7.641,7.641,0,0,0,5.053-7.2,27.838,27.838,0,0,0,0-2.786,7.781,7.781,0,0,0-5.456-7.138Z" transform="translate(-178.61 -153.804)" fill="#ff8427"/>
</svg>
